<?xml version="1.0" encoding="UTF-8" standalone="no"?>
<svg
   xmlns:dc="http://purl.org/dc/elements/1.1/"
   xmlns:cc="http://creativecommons.org/ns#"
   xmlns:rdf="http://www.w3.org/1999/02/22-rdf-syntax-ns#"
   xmlns:svg="http://www.w3.org/2000/svg"
   xmlns="http://www.w3.org/2000/svg"
   xmlns:sodipodi="http://sodipodi.sourceforge.net/DTD/sodipodi-0.dtd"
   xmlns:inkscape="http://www.inkscape.org/namespaces/inkscape"
   inkscape:version="1.0 (4035a4fb49, 2020-05-01)"
   sodipodi:docname="folder-closed.svg"
   xml:space="preserve"
   style="enable-background:new 0 0 58 58;"
   viewBox="0 0 58 58"
   y="0px"
   x="0px"
   id="Capa_1"
   version="1.1"><metadata
   id="metadata43"><rdf:RDF><cc:Work
       rdf:about=""><dc:format>image/svg+xml</dc:format><dc:type
         rdf:resource="http://purl.org/dc/dcmitype/StillImage" /><dc:title></dc:title></cc:Work></rdf:RDF></metadata><defs
   id="defs41" /><sodipodi:namedview
   inkscape:current-layer="Capa_1"
   inkscape:window-maximized="1"
   inkscape:window-y="-8"
   inkscape:window-x="-8"
   inkscape:cy="18.329583"
   inkscape:cx="40.037807"
   inkscape:zoom="10.362772"
   showgrid="false"
   id="namedview39"
   inkscape:window-height="1017"
   inkscape:window-width="1920"
   inkscape:pageshadow="2"
   inkscape:pageopacity="0"
   guidetolerance="10"
   gridtolerance="10"
   objecttolerance="10"
   borderopacity="1"
   bordercolor="#666666"
   pagecolor="#ffffff" />

<g
   id="g6">
	<path
   sodipodi:nodetypes="sccsscccscss"
   id="path4"
   d="M 50.268,12.5 H 25 l -5,-7 H 1.732 C 0.776,5.5 0,6.275 0,7.232 V 49.96 c 0.069,0.002 0.138,0.006 0.205,0.01 L 10.22,22.656 C 10.404,21.973 11.023,21.5 11.73,21.5 L 50.745509,21.54825 52,14.232 C 52.161733,13.288765 51.224,12.5 50.268,12.5 Z"
   style="fill:#ebba16" />
</g>
<g
   id="g8">
</g>
<g
   id="g10">
</g>
<g
   id="g12">
</g>
<g
   id="g14">
</g>
<g
   id="g16">
</g>
<g
   id="g18">
</g>
<g
   id="g20">
</g>
<g
   id="g22">
</g>
<g
   id="g24">
</g>
<g
   id="g26">
</g>
<g
   id="g28">
</g>
<g
   id="g30">
</g>
<g
   id="g32">
</g>
<g
   id="g34">
</g>
<g
   id="g36">
</g>
<path
   sodipodi:nodetypes="ssccssccs"
   id="path2"
   d="M 50.425219,52.403501 1.565,52.5 c -1.02999799,0.002 -1.779,-0.978 -1.51,-1.973 L 0.04032613,14.115814 c 0.184,-0.682 0.80302202,-1.15042 1.50999997,-1.156 L 50.458795,12.573817 c 1.029968,-0.0081 1.51,0.984 1.51,1.973 l -0.03358,36.700684 c -0.184,0.682 -0.803001,1.154603 -1.51,1.156 z"
   style="fill:#efce4a;fill-opacity:1" /></svg>
